<?xml version="1.0" encoding="UTF-8"?>
<svg width="104px" height="34px" viewBox="0 0 104 34" version="1.1" xmlns="http://www.w3.org/2000/svg" xmlns:xlink="http://www.w3.org/1999/xlink">
    <!-- Generator: Sketch 57.1 (83088) - https://sketch.com -->
    <title>app-store-mini</title>
    <desc>Created with Sketch.</desc>
    <g id="Final" stroke="none" stroke-width="1" fill="none" fill-rule="evenodd">
        <g id="icons" transform="translate(-428.000000, -84.000000)">
            <g id="app-store-mini" transform="translate(428.000000, 84.000000)">
                <rect id="Rectangle" fill="#000000" x="0" y="0" width="104" height="34" rx="4"></rect>
                <path d="M21.2790568,16.1614313 C21.2974627,14.7599988 22.0464193,13.4655016 23.2635284,12.7314687 C22.4922212,11.6508584 21.2466459,10.9902908 19.9025516,10.9490374 C18.4884547,10.8034313 17.1175495,11.7791143 16.3969516,11.7791143 C15.6624084,11.7791143 14.5529347,10.9634939 13.3582147,10.9876074 C11.7862747,11.0374274 10.356326,11.8929124 9.59154526,13.2410652 C7.96291368,16.0071513 9.17772632,20.0723665 10.7378189,22.3082617 C11.5183663,23.4031161 12.4306021,24.6260965 13.6242442,24.582727 C14.7922947,24.5352022 15.2285389,23.8520696 16.6384758,23.8520696 C18.0353263,23.8520696 18.4446147,24.582727 19.6624758,24.5551522 C20.9158484,24.5351939 21.7055326,23.4554322 22.4586947,22.3502104 C23.0195167,21.5700867 23.4510684,20.7078801 23.7373642,19.7955283 C22.2487382,19.1778889 21.2807943,17.7469849 21.2790568,16.1614313 L21.2790568,16.1614313 Z" id="_Path_" fill="#FFFFFF" fill-rule="nonzero"></path>
                <path d="M18.9787368,9.4785613 C19.6621277,8.6737807 19.9988084,7.63937159 19.91728,6.59500565 C18.8732108,6.7025791 17.9087833,7.19208451 17.21616,7.96598783 C16.5322263,8.72954746 16.1857471,9.72848786 16.2530358,10.7427883 C17.3111047,10.7534752 18.3157188,10.2875179 18.9787368,9.4785613 L18.9787368,9.4785613 Z" id="_Path_2" fill="#FFFFFF" fill-rule="nonzero"></path>
                <path d="M34.52,13.096 C34.1573315,13.096 33.8173349,13.0386672 33.5,12.924 C33.1826651,12.8093328 32.8880014,12.618668 32.616,12.352 L33.12,11.72 C33.3386678,11.9226677 33.5573322,12.0679996 33.776,12.156 C33.9946678,12.2440004 34.2399986,12.288 34.512,12.288 C34.8160015,12.288 35.0706656,12.2146674 35.276,12.068 C35.4813344,11.9213326 35.584,11.7066681 35.584,11.424 C35.584,11.1466653 35.484001,10.9440006 35.284,10.816 C35.083999,10.6879994 34.7920019,10.624 34.408,10.624 L33.76,10.624 L33.76,9.928 L34.248,9.928 C34.6320019,9.928 34.9079992,9.86400064 35.076,9.736 C35.2440008,9.60799936 35.328,9.4240012 35.328,9.184 C35.328,8.9439988 35.2453342,8.76666724 35.08,8.652 C34.9146658,8.53733276 34.7040013,8.48 34.448,8.48 C34.2239989,8.48 34.0186676,8.51866628 33.832,8.596 C33.6453324,8.67333372 33.4666675,8.78133264 33.296,8.92 L32.824,8.304 C33.032001,8.10666568 33.2786652,7.95200056 33.564,7.84 C33.8493348,7.72799944 34.1519984,7.672 34.472,7.672 C35.0213361,7.672 35.4519984,7.79333212 35.764,8.036 C36.0760016,8.27866788 36.232,8.61599784 36.232,9.048 C36.232,9.314668 36.1720006,9.54933232 36.052,9.752 C35.9319994,9.95466768 35.7520012,10.1039995 35.512,10.2 L35.512,10.232 C35.7946681,10.2960003 36.0293324,10.4373322 36.216,10.656 C36.4026676,10.8746678 36.496,11.1519983 36.496,11.488 C36.496,11.7493346 36.4453338,11.979999 36.344,12.18 C36.2426662,12.380001 36.1026676,12.5479993 35.924,12.684 C35.7453324,12.8200007 35.5360012,12.9226663 35.296,12.992 C35.0559988,13.0613337 34.7973347,13.096 34.52,13.096 Z M38.32,13.096 C37.9733316,13.096 37.6933344,12.9906677 37.48,12.78 C37.2666656,12.5693323 37.16,12.2906684 37.16,11.944 C37.16,11.735999 37.2039996,11.5506675 37.292,11.388 C37.3800004,11.2253325 37.5186657,11.0853339 37.708,10.968 C37.8973343,10.8506661 38.1373319,10.7520004 38.428,10.672 C38.7186681,10.5919996 39.0666646,10.5306669 39.472,10.488 C39.4666666,10.3866662 39.4520001,10.2893338 39.428,10.196 C39.4039999,10.1026662 39.3640003,10.0200004 39.308,9.948 C39.2519997,9.87599964 39.1786671,9.8200002 39.088,9.78 C38.9973329,9.7399998 38.885334,9.72 38.752,9.72 C38.559999,9.72 38.3720009,9.75733296 38.188,9.832 C38.0039991,9.90666704 37.8240009,9.9973328 37.648,10.104 L37.312,9.488 C37.5306678,9.34933264 37.7759986,9.22933384 38.048,9.128 C38.3200014,9.02666616 38.6133318,8.976 38.928,8.976 C39.4186691,8.976 39.7853321,9.12133188 40.028,9.412 C40.2706679,9.70266812 40.392,10.1226639 40.392,10.672 L40.392,13 L39.632,13 L39.568,12.568 L39.536,12.568 C39.3599991,12.7173341 39.172001,12.8426662 38.972,12.944 C38.771999,13.0453338 38.5546678,13.096 38.32,13.096 Z M38.616,12.376 C38.7760008,12.376 38.9213327,12.338667 39.052,12.264 C39.1826673,12.189333 39.3226659,12.0826674 39.472,11.944 L39.472,11.064 C39.205332,11.0960002 38.9813342,11.1386664 38.8,11.192 C38.6186658,11.2453336 38.4720006,11.305333 38.36,11.372 C38.2479994,11.438667 38.1680002,11.5146662 38.12,11.6 C38.0719998,11.6853338 38.048,11.7759995 38.048,11.872 C38.048,12.0480009 38.1013328,12.1759996 38.208,12.256 C38.3146672,12.3360004 38.4506658,12.376 38.616,12.376 Z M41.496,13 L41.496,9.072 L44.08,9.072 L44.08,9.8 L42.416,9.8 L42.416,13 L41.496,13 Z M44.872,14.552 L44.872,9.072 L45.632,9.072 L45.696,9.488 L45.728,9.488 C45.8933342,9.34933264 46.0773323,9.22933384 46.28,9.128 C46.4826677,9.02666616 46.6933322,8.976 46.912,8.976 C47.1573346,8.976 47.3746657,9.0226662 47.564,9.116 C47.7533343,9.2093338 47.914666,9.34399912 48.048,9.52 C48.181334,9.69600088 48.2826663,9.90666544 48.352,10.152 C48.4213337,10.3973346 48.456,10.6719985 48.456,10.976 C48.456,11.3120017 48.4093338,11.6119987 48.316,11.876 C48.2226662,12.1400013 48.0986674,12.3613324 47.944,12.54 C47.7893326,12.7186676 47.6106677,12.8559995 47.408,12.952 C47.2053323,13.0480005 46.9946678,13.096 46.776,13.096 C46.6053325,13.096 46.4346675,13.058667 46.264,12.984 C46.0933325,12.909333 45.9280008,12.8026674 45.768,12.664 L45.792,13.32 L45.792,14.552 L44.872,14.552 Z M46.584,12.336 C46.8453346,12.336 47.0639991,12.2226678 47.24,11.996 C47.4160009,11.7693322 47.504,11.4320022 47.504,10.984 C47.504,10.5893314 47.437334,10.2826678 47.304,10.064 C47.170666,9.84533224 46.9546682,9.736 46.656,9.736 C46.3786653,9.736 46.0906682,9.8826652 45.792,10.176 L45.792,12.008 C45.9360007,12.1306673 46.074666,12.2159998 46.208,12.264 C46.341334,12.3120002 46.4666661,12.336 46.584,12.336 Z M49.648,14.616 C49.5413328,14.616 49.4480004,14.6093334 49.368,14.596 C49.2879996,14.5826666 49.210667,14.5626668 49.136,14.536 L49.304,13.816 C49.3413335,13.8266667 49.3853331,13.8386666 49.436,13.852 C49.4866669,13.8653334 49.5359998,13.872 49.584,13.872 C49.792001,13.872 49.958666,13.809334 50.084,13.684 C50.209334,13.558666 50.3039997,13.3973343 50.368,13.2 L50.44,12.952 L48.896,9.072 L49.832,9.072 L50.512,11 C50.570667,11.1706675 50.6279997,11.3506657 50.684,11.54 C50.7400003,11.7293343 50.797333,11.9173324 50.856,12.104 L50.888,12.104 C50.9360002,11.9226658 50.9853331,11.7373343 51.036,11.548 C51.0866669,11.3586657 51.1359998,11.1760009 51.184,11 L51.776,9.072 L52.664,9.072 L51.24,13.176 C51.1599996,13.4000011 51.0720005,13.5999991 50.976,13.776 C50.8799995,13.9520009 50.769334,14.102666 50.644,14.228 C50.518666,14.353334 50.3746675,14.449333 50.212,14.516 C50.0493325,14.582667 49.8613344,14.616 49.648,14.616 Z M54.52,13.096 C54.2479986,13.096 53.9906679,13.062667 53.748,12.996 C53.5053321,12.929333 53.2613346,12.8026676 53.016,12.616 L53.392,12.024 C53.5626675,12.157334 53.7373324,12.2506664 53.916,12.304 C54.0946676,12.3573336 54.2693325,12.384 54.44,12.384 C54.6800012,12.384 54.8813325,12.3333338 55.044,12.232 C55.2066675,12.1306662 55.288,11.9893342 55.288,11.808 C55.288,11.4613316 55.021336,11.288 54.488,11.288 L53.904,11.288 L53.904,10.664 L54.408,10.664 C54.6586679,10.664 54.8453327,10.6200004 54.968,10.532 C55.0906673,10.4439996 55.152,10.3226674 55.152,10.168 C55.152,10.0079992 55.089334,9.8880004 54.964,9.808 C54.838666,9.7279996 54.6693344,9.688 54.456,9.688 C54.2533323,9.688 54.0746674,9.71199976 53.92,9.76 C53.7653326,9.80800024 53.6106674,9.8853328 53.456,9.992 L53.096,9.392 C53.2986677,9.25333264 53.516,9.14933368 53.748,9.08 C53.9800012,9.01066632 54.2346653,8.976 54.512,8.976 C54.7146677,8.976 54.9079991,8.99733312 55.092,9.04 C55.2760009,9.08266688 55.438666,9.14799956 55.58,9.236 C55.721334,9.32400044 55.8333329,9.43733264 55.916,9.576 C55.9986671,9.71466736 56.04,9.8773324 56.04,10.064 C56.04,10.2400009 55.9866672,10.4066659 55.88,10.564 C55.7733328,10.7213341 55.6133344,10.837333 55.4,10.912 L55.4,10.944 C55.6400012,11.002667 55.8333326,11.1079992 55.98,11.26 C56.1266674,11.4120008 56.2,11.6239986 56.2,11.896 C56.2,12.088001 56.1533338,12.2586659 56.06,12.408 C55.9666662,12.5573341 55.8413341,12.6826662 55.684,12.784 C55.5266659,12.8853338 55.3466677,12.9626664 55.144,13.016 C54.9413323,13.0693336 54.7333344,13.096 54.52,13.096 Z M57.072,13 L57.072,9.072 L57.968,9.072 L57.968,10.424 C57.968,10.6266677 57.9586668,10.8519988 57.94,11.1 C57.9213332,11.3480012 57.9040001,11.5973321 57.888,11.848 L57.912,11.848 C57.9813337,11.7253327 58.0639995,11.5853341 58.16,11.428 C58.2560005,11.2706659 58.3359997,11.1333339 58.4,11.016 L59.648,9.072 L60.496,9.072 L60.496,13 L59.6,13 L59.6,11.648 C59.6,11.4453323 59.6093332,11.2200012 59.628,10.972 C59.6466668,10.7239988 59.6666666,10.4746679 59.688,10.224 L59.656,10.224 C59.5866663,10.3466673 59.5053338,10.4866659 59.412,10.644 C59.3186662,10.8013341 59.2373337,10.9386661 59.168,11.056 L57.92,13 L57.072,13 Z M62.52,13 L62.52,9.8 L61.288,9.8 L61.288,9.072 L64.68,9.072 L64.68,9.8 L63.448,9.8 L63.448,13 L62.52,13 Z M67.152,13.096 C66.8799986,13.096 66.6266678,13.0493338 66.392,12.956 C66.1573322,12.8626662 65.9520009,12.7280009 65.776,12.552 C65.5999991,12.3759991 65.4626672,12.1613346 65.364,11.908 C65.2653328,11.6546654 65.216,11.365335 65.216,11.04 C65.216,10.7199984 65.2666662,10.4320013 65.368,10.176 C65.4693338,9.91999872 65.6039992,9.70400088 65.772,9.528 C65.9400008,9.35199912 66.1333322,9.21600048 66.352,9.12 C66.5706678,9.02399952 66.7946655,8.976 67.024,8.976 C67.290668,8.976 67.5253323,9.02133288 67.728,9.112 C67.9306677,9.20266712 68.0999993,9.33066584 68.236,9.496 C68.3720007,9.66133416 68.4746663,9.85866552 68.544,10.088 C68.6133337,10.3173345 68.648,10.5679986 68.648,10.84 C68.648,10.9306671 68.644,11.0159996 68.636,11.096 C68.628,11.1760004 68.6186667,11.2399998 68.608,11.288 L66.112,11.288 C66.1546669,11.6400018 66.2786656,11.9106657 66.484,12.1 C66.6893344,12.2893343 66.9519984,12.384 67.272,12.384 C67.4426675,12.384 67.6013326,12.3586669 67.748,12.308 C67.8946674,12.2573331 68.0399993,12.1866671 68.184,12.096 L68.496,12.672 C68.3093324,12.7946673 68.1013345,12.8959996 67.872,12.976 C67.6426655,13.0560004 67.4026679,13.096 67.152,13.096 Z M66.104,10.664 L67.848,10.664 C67.848,10.3599985 67.7826673,10.1213342 67.652,9.948 C67.5213327,9.7746658 67.3200014,9.688 67.048,9.688 C66.8133322,9.688 66.6080009,9.77066584 66.432,9.936 C66.2559991,10.1013342 66.1466669,10.3439984 66.104,10.664 Z M71.128,13 L71.128,9.072 L72.72,9.072 C72.9386678,9.072 73.1399991,9.08933316 73.324,9.124 C73.5080009,9.15866684 73.6679993,9.2159996 73.804,9.296 C73.9400007,9.3760004 74.0466663,9.48133268 74.124,9.612 C74.2013337,9.74266732 74.24,9.9013324 74.24,10.088 C74.24,10.280001 74.1853339,10.4493326 74.076,10.596 C73.9666661,10.7426674 73.8026678,10.8479997 73.584,10.912 L73.584,10.944 C73.8186678,11.002667 74.0133326,11.1039993 74.168,11.248 C74.3226674,11.3920007 74.4,11.5999986 74.4,11.872 C74.4,12.0693343 74.3586671,12.238666 74.276,12.38 C74.1933329,12.521334 74.0800007,12.6386662 73.936,12.732 C73.7919993,12.8253338 73.6226676,12.8933331 73.428,12.936 C73.2333324,12.9786669 73.0240011,13 72.8,13 L71.128,13 Z M72.032,10.664 L72.632,10.664 C72.8880013,10.664 73.0719994,10.6213338 73.184,10.536 C73.2960006,10.4506662 73.352,10.3333341 73.352,10.184 C73.352,10.0293326 73.2986672,9.90933376 73.192,9.824 C73.0853328,9.73866624 72.9066679,9.696 72.656,9.696 L72.032,9.696 L72.032,10.664 Z M72.032,12.376 L72.736,12.376 C73.002668,12.376 73.1959994,12.3253338 73.316,12.224 C73.4360006,12.1226662 73.496,11.9866675 73.496,11.816 C73.496,11.6559992 73.4320006,11.5280005 73.304,11.432 C73.1759994,11.3359995 72.9760014,11.288 72.704,11.288 L72.032,11.288 L72.032,12.376 Z" id="Загрузитев" fill="#FFFFFF" fill-rule="nonzero"></path>
                <path d="M35.038,20.128 L34.716,21.248 L37.054,21.248 L36.732,20.128 C36.5826659,19.6426642 36.440334,19.1433359 36.305,18.63 C36.169666,18.1166641 36.0366673,17.6080025 35.906,17.104 L35.85,17.104 C35.7193327,17.6173359 35.5886673,18.1283308 35.458,18.637 C35.3273327,19.1456692 35.1873341,19.6426642 35.038,20.128 Z M31.972,25 L34.954,15.844 L36.858,15.844 L39.84,25 L38.132,25 L37.418,22.522 L34.338,22.522 L33.624,25 L31.972,25 Z M40.834,27.716 L40.834,18.126 L42.164,18.126 L42.276,18.854 L42.332,18.854 C42.6213348,18.6113321 42.9433316,18.4013342 43.298,18.224 C43.6526684,18.0466658 44.0213314,17.958 44.404,17.958 C44.8333355,17.958 45.213665,18.0396658 45.545,18.203 C45.876335,18.3663342 46.1586655,18.6019985 46.392,18.91 C46.6253345,19.2180015 46.8026661,19.5866645 46.924,20.016 C47.0453339,20.4453355 47.106,20.9259973 47.106,21.458 C47.106,22.0460029 47.0243342,22.5709977 46.861,23.033 C46.6976658,23.4950023 46.480668,23.8823318 46.21,24.195 C45.939332,24.5076682 45.6266684,24.7479992 45.272,24.916 C44.9173316,25.0840008 44.5486686,25.168 44.166,25.168 C43.8673318,25.168 43.5686682,25.1026673 43.27,24.972 C42.9713318,24.8413327 42.6820014,24.6546679 42.402,24.412 L42.444,25.56 L42.444,27.716 L40.834,27.716 Z M43.83,23.838 C44.2873356,23.838 44.6699985,23.6396687 44.978,23.243 C45.2860015,22.8463313 45.44,22.2560039 45.44,21.472 C45.44,20.7813299 45.3233345,20.2446686 45.09,19.862 C44.8566655,19.4793314 44.4786693,19.288 43.956,19.288 C43.4706642,19.288 42.9666693,19.5446641 42.444,20.058 L42.444,23.264 C42.6960013,23.4786677 42.9386655,23.6279996 43.172,23.712 C43.4053345,23.7960004 43.6246656,23.838 43.83,23.838 Z M48.73,27.716 L48.73,18.126 L50.06,18.126 L50.172,18.854 L50.228,18.854 C50.5173348,18.6113321 50.8393316,18.4013342 51.194,18.224 C51.5486684,18.0466658 51.9173314,17.958 52.3,17.958 C52.7293355,17.958 53.109665,18.0396658 53.441,18.203 C53.772335,18.3663342 54.0546655,18.6019985 54.288,18.91 C54.5213345,19.2180015 54.6986661,19.5866645 54.82,20.016 C54.9413339,20.4453355 55.002,20.9259973 55.002,21.458 C55.002,22.0460029 54.9203342,22.5709977 54.757,23.033 C54.5936658,23.4950023 54.376668,23.8823318 54.106,24.195 C53.835332,24.5076682 53.5226684,24.7479992 53.168,24.916 C52.8133316,25.0840008 52.4446686,25.168 52.062,25.168 C51.7633318,25.168 51.4646682,25.1026673 51.166,24.972 C50.8673318,24.8413327 50.5780014,24.6546679 50.298,24.412 L50.34,25.56 L50.34,27.716 L48.73,27.716 Z M51.726,23.838 C52.1833356,23.838 52.5659985,23.6396687 52.874,23.243 C53.1820015,22.8463313 53.336,22.2560039 53.336,21.472 C53.336,20.7813299 53.2193345,20.2446686 52.986,19.862 C52.7526655,19.4793314 52.3746693,19.288 51.852,19.288 C51.3666642,19.288 50.8626693,19.5446641 50.34,20.058 L50.34,23.264 C50.5920013,23.4786677 50.8346655,23.6279996 51.068,23.712 C51.3013345,23.7960004 51.5206656,23.838 51.726,23.838 Z M62.24,25.168 C61.6239969,25.168 61.0290029,25.0513345 60.455,24.818 C59.8809971,24.5846655 59.3746689,24.2533355 58.936,23.824 L59.888,22.718 C60.2146683,23.0260015 60.5879979,23.2756657 61.008,23.467 C61.4280021,23.6583343 61.8479979,23.754 62.268,23.754 C62.7906693,23.754 63.187332,23.6466677 63.458,23.432 C63.728668,23.2173323 63.864,22.9326684 63.864,22.578 C63.864,22.3913324 63.8290004,22.2326673 63.759,22.102 C63.6889996,21.9713327 63.5910006,21.8570005 63.465,21.759 C63.3389994,21.6609995 63.1896675,21.5700004 63.017,21.486 C62.8443325,21.4019996 62.6553344,21.3180004 62.45,21.234 L61.19,20.688 C60.9659989,20.5946662 60.7443344,20.4780007 60.525,20.338 C60.3056656,20.1979993 60.1073342,20.030001 59.93,19.834 C59.7526658,19.637999 59.6103339,19.4093346 59.503,19.148 C59.3956661,18.8866654 59.342,18.5880017 59.342,18.252 C59.342,17.8879982 59.4189992,17.5496682 59.573,17.237 C59.7270008,16.9243318 59.939332,16.6513345 60.21,16.418 C60.480668,16.1846655 60.8049981,16.0026673 61.183,15.872 C61.5610019,15.7413327 61.9739978,15.676 62.422,15.676 C62.9540027,15.676 63.4673309,15.780999 63.962,15.991 C64.4566691,16.201001 64.8813316,16.4833316 65.236,16.838 L64.41,17.874 C64.1113318,17.6313321 63.8033349,17.4400007 63.486,17.3 C63.1686651,17.1599993 62.814002,17.09 62.422,17.09 C61.9833311,17.09 61.6333346,17.1856657 61.372,17.377 C61.1106654,17.5683343 60.98,17.8319983 60.98,18.168 C60.98,18.3453342 61.0196663,18.4969994 61.099,18.623 C61.1783337,18.7490006 61.285666,18.8609995 61.421,18.959 C61.556334,19.0570005 61.7126658,19.1456663 61.89,19.225 C62.0673342,19.3043337 62.2493324,19.381333 62.436,19.456 L63.682,19.974 C63.952668,20.0860006 64.1999989,20.2166659 64.424,20.366 C64.6480011,20.5153341 64.8416658,20.687999 65.005,20.884 C65.1683341,21.080001 65.2966662,21.3063321 65.39,21.563 C65.4833338,21.8196679 65.53,22.1159983 65.53,22.452 C65.53,22.8253352 65.4553341,23.1753317 65.306,23.502 C65.1566659,23.8286683 64.9396681,24.1156654 64.655,24.363 C64.3703319,24.6103346 64.025002,24.8063326 63.619,24.951 C63.212998,25.0956674 62.7533359,25.168 62.24,25.168 Z M69.478,25.168 C69.0766647,25.168 68.7383347,25.1073339 68.463,24.986 C68.1876653,24.8646661 67.9636675,24.6943344 67.791,24.475 C67.6183325,24.2556656 67.4923337,23.9943349 67.413,23.691 C67.3336663,23.3876652 67.294,23.0493352 67.294,22.676 L67.294,19.4 L66.314,19.4 L66.314,18.196 L67.378,18.126 L67.574,16.25 L68.918,16.25 L68.918,18.126 L70.668,18.126 L70.668,19.4 L68.918,19.4 L68.918,22.676 C68.918,23.4786707 69.2399968,23.88 69.884,23.88 C70.0053339,23.88 70.1289994,23.8660001 70.255,23.838 C70.3810006,23.8099999 70.4953328,23.7726669 70.598,23.726 L70.878,24.916 C70.6913324,24.9813337 70.4790012,25.0396664 70.241,25.091 C70.0029988,25.1423336 69.748668,25.168 69.478,25.168 Z M74.924,25.168 C74.4946645,25.168 74.084002,25.0886675 73.692,24.93 C73.299998,24.7713325 72.9523348,24.5380015 72.649,24.23 C72.3456652,23.9219985 72.1053342,23.5440022 71.928,23.096 C71.7506658,22.6479978 71.662,22.1393362 71.662,21.57 C71.662,21.0006638 71.7506658,20.4920022 71.928,20.044 C72.1053342,19.5959978 72.3456652,19.2180015 72.649,18.91 C72.9523348,18.6019985 73.299998,18.3663342 73.692,18.203 C74.084002,18.0396658 74.4946645,17.958 74.924,17.958 C75.3533355,17.958 75.7663314,18.0396658 76.163,18.203 C76.5596686,18.3663342 76.9073318,18.6019985 77.206,18.91 C77.5046682,19.2180015 77.7449991,19.5959978 77.927,20.044 C78.1090009,20.4920022 78.2,21.0006638 78.2,21.57 C78.2,22.1393362 78.1090009,22.6479978 77.927,23.096 C77.7449991,23.5440022 77.5046682,23.9219985 77.206,24.23 C76.9073318,24.5380015 76.5596686,24.7713325 76.163,24.93 C75.7663314,25.0886675 75.3533355,25.168 74.924,25.168 Z M74.924,23.852 C75.4280025,23.852 75.8246652,23.6443354 76.114,23.229 C76.4033348,22.8136646 76.548,22.2606701 76.548,21.57 C76.548,20.8699965 76.4033348,20.3123354 76.114,19.897 C75.8246652,19.4816646 75.4280025,19.274 74.924,19.274 C74.4199975,19.274 74.0256681,19.4816646 73.741,19.897 C73.4563319,20.3123354 73.314,20.8699965 73.314,21.57 C73.314,22.2606701 73.4563319,22.8136646 73.741,23.229 C74.0256681,23.6443354 74.4199975,23.852 74.924,23.852 Z M79.796,25 L79.796,18.126 L81.126,18.126 L81.238,19.344 L81.294,19.344 C81.5366679,18.8959978 81.8306649,18.5530012 82.176,18.315 C82.5213351,18.0769988 82.8759982,17.958 83.24,17.958 C83.5666683,17.958 83.827999,18.0046662 84.024,18.098 L83.744,19.498 C83.6226661,19.4606665 83.5106672,19.4326668 83.408,19.414 C83.3053328,19.3953332 83.1793341,19.386 83.03,19.386 C82.759332,19.386 82.4746682,19.4909989 82.176,19.701 C81.8773318,19.911001 81.6206677,20.2773307 81.406,20.8 L81.406,25 L79.796,25 Z M87.958,25.168 C87.4819976,25.168 87.0386687,25.0863341 86.628,24.923 C86.2173313,24.7596659 85.8580015,24.5240015 85.55,24.216 C85.2419985,23.9079985 85.0016675,23.5323355 84.829,23.089 C84.6563325,22.6456644 84.57,22.1393362 84.57,21.57 C84.57,21.0099972 84.6586658,20.5060022 84.836,20.058 C85.0133342,19.6099978 85.2489985,19.2320015 85.543,18.924 C85.8370015,18.6159985 86.1753314,18.3780008 86.558,18.21 C86.9406686,18.0419992 87.3326647,17.958 87.734,17.958 C88.200669,17.958 88.6113316,18.0373325 88.966,18.196 C89.3206684,18.3546675 89.6169988,18.5786652 89.855,18.868 C90.0930012,19.1573348 90.2726661,19.5026647 90.394,19.904 C90.5153339,20.3053353 90.576,20.7439976 90.576,21.22 C90.576,21.3786675 90.5690001,21.5279993 90.555,21.668 C90.5409999,21.8080007 90.5246668,21.9199996 90.506,22.004 L86.138,22.004 C86.212667,22.6200031 86.4296649,23.093665 86.789,23.425 C87.1483351,23.756335 87.6079972,23.922 88.168,23.922 C88.4666682,23.922 88.744332,23.8776671 89.001,23.789 C89.2576679,23.7003329 89.5119987,23.5766675 89.764,23.418 L90.31,24.426 C89.9833317,24.6406677 89.6193353,24.8179993 89.218,24.958 C88.8166647,25.0980007 88.3966689,25.168 87.958,25.168 Z M86.124,20.912 L89.176,20.912 C89.176,20.3799973 89.0616678,19.9623348 88.833,19.659 C88.6043322,19.3556652 88.2520024,19.204 87.776,19.204 C87.3653313,19.204 87.0060015,19.3486652 86.698,19.638 C86.3899985,19.9273348 86.198667,20.3519972 86.124,20.912 Z" id="AppStore" fill="#FFFFFF" fill-rule="nonzero"></path>
            </g>
        </g>
    </g>
</svg>