<svg xmlns="http://www.w3.org/2000/svg" width="653" height="653" viewBox="0 0 653 653">
  <defs>
    <style>
      .cls-1 {
        fill: #fff;
        fill-rule: evenodd;
      }
    </style>
  </defs>
  <path id="Фигура_1" data-name="Фигура 1" class="cls-1" d="M650.743,0L653,161.96,301.674,249.169l-0.752-92.746L184.315,178.571a192.449,192.449,0,0,0,15.046,24.917c6.711,9.345,12.451,15.143,19.56,22.149,9.814,9.673,17.92,19.75,27.835,29.069,7.177,6.746,14.687,13.017,22.569,19.38,11.238,9.073,21.9,18.476,33.1,27.686,34.621,28.455,70.925,56.2,108.332,83.056C438.1,404.461,482.322,433.74,519.09,458.2q46.108,30.666,92.533,62.292c20.115,25.37,24.97,72.385,14.294,102.436-7.656,21.55-23.17,33.8-39.872,29.07a203.159,203.159,0,0,1-21.817-8.306c-21.646-9.664-38.941-21.637-57.175-35.991-12.92-10.17-28.946-22.85-37.615-30.454-35.317-30.976-77.97-68.649-103.066-92.746-36.31-34.865-75.662-74.449-103.066-105.2-22.06-24.759-45.525-51.069-65.45-71.982-6.1-6.406-19.522-20.28-29.34-30.454-4.536-4.7-9.008-9.132-13.541-13.843-9.179-9.539-17.852-18.076-27.083-26.3a93.423,93.423,0,0,0-12.789-9.69,76.982,76.982,0,0,0-7.524-4.153h-6.018a152.136,152.136,0,0,0-18.808,6.921c-12.237,5.422-22.368,12.581-34.606,18a128.819,128.819,0,0,1-25.578,8.306H9.028L0,227.021v-2.769l11.285-27.685L45.891,193.8a72.2,72.2,0,0,0,17.3-2.768c7.978-2.312,13.239-5.544,18.055-12.459a53.885,53.885,0,0,0,5.266-9.69,25.927,25.927,0,0,1,4.514-2.768,21.375,21.375,0,0,1,3.761-1.384h10.533c3.739,0.2,7.319,3.059,9.78,8.3a36,36,0,0,1,3.009,12.459h1.5l6.771-26.3v-1.385l-14.294-4.153v-2.768ZM598.082,580.011c0-12.91-5.773-23.533-12.789-23.533S572.5,567.1,572.5,580.011s5.774,23.532,12.79,23.532S598.082,592.92,598.082,580.011ZM169.268,204.873c-0.284-12.891-5.981-23.179-12.789-23.533-7.081-.369-13.24,10.119-13.541,23.533-0.1,13.975,6.21,25.3,13.541,24.916C163.537,229.422,169.375,218.32,169.268,204.873Z"/>
</svg>
