<?xml version="1.0" encoding="UTF-8"?>
<svg width="116px" height="34px" viewBox="0 0 116 34" version="1.1" xmlns="http://www.w3.org/2000/svg" xmlns:xlink="http://www.w3.org/1999/xlink">
    <!-- Generator: Sketch 57.1 (83088) - https://sketch.com -->
    <title>google-play-mini</title>
    <desc>Created with Sketch.</desc>
    <g id="Final" stroke="none" stroke-width="1" fill="none" fill-rule="evenodd">
        <g id="icons" transform="translate(-540.000000, -84.000000)">
            <g id="google-play-mini" transform="translate(540.000000, 84.000000)">
                <rect id="Rectangle" fill="#000000" x="0" y="0" width="116" height="34" rx="4"></rect>
                <path d="M23.2183664,15.641457 L20.1593289,13.8829766 L15.9682472,16.9999297 L20.1592583,20.1168828 L23.2287152,18.3523555 C23.7073024,18.0629492 23.9929007,17.5572266 23.9929007,17 C23.9929007,16.4427734 23.7072671,15.9370859 23.2183664,15.641457 Z" id="Path" fill="#FFCE00" fill-rule="nonzero"></path>
                <path d="M17.0278499,17 C17.0232583,17.0058711 13.3222428,21.7422617 13.3192406,21.7460938 L8.49804857,25.5253906 C8.2013245,25.230043 8.02122737,24.829332 8.02122737,24.386293 L8.02122737,9.58755078 C8.02122737,9.14461719 8.2013245,8.74380078 8.49804857,8.44852344 L13.3192406,12.2539063 C13.3222428,12.2577383 17.0232583,16.9941289 17.0278499,17 Z" id="Path" fill="#00D3FF" fill-rule="nonzero"></path>
                <polygon id="Path" fill="#00C0F1" fill-rule="nonzero" points="17.0278499 17 15.9682472 18.3605117 15.9682472 15.639418"></polygon>
                <path d="M20.1643091,13.8780898 L17.0278499,17 L8.49804857,8.44855859 C8.60397351,8.35360156 8.70996909,8.27977344 8.82652539,8.20594531 C9.33509934,7.92121484 9.93910817,7.93172656 10.4371567,8.23762109 L15.9682472,11.4734375 L20.1643091,13.8780898 Z" id="Path" fill="#00F076" fill-rule="nonzero"></path>
                <path d="M20.1643091,20.1218398 L15.9682472,22.5265625 L10.4265607,25.746875 C10.1722561,25.8944961 9.89675938,25.9788711 9.61063135,25.9788711 C9.34573068,25.9788711 9.08083002,25.905043 8.82652539,25.7679336 C8.70996909,25.6941055 8.60397351,25.6203125 8.49804857,25.5253906 L17.0278499,17 L20.1643091,20.1218398 Z" id="Path" fill="#F63448" fill-rule="nonzero"></path>
                <path d="M33.064,13 L33.064,14.504 L32.24,14.504 L32.152,12.792 L32.152,12.216 L32.392,12.216 C32.450667,12.1946666 32.5106664,12.1493337 32.572,12.08 C32.6333336,12.0106663 32.6946664,11.9040007 32.756,11.76 C32.8173336,11.6159993 32.8799997,11.4320011 32.944,11.208 C33.0080003,10.9839989 33.0719997,10.7066683 33.136,10.376 C33.1840002,10.1306654 33.2253332,9.90666768 33.26,9.704 C33.2946668,9.50133232 33.3293332,9.300001 33.364,9.1 C33.3986668,8.899999 33.4333332,8.69466772 33.468,8.484 C33.5026668,8.27333228 33.5413331,8.034668 33.584,7.768 L36.464,7.768 L36.464,12.216 L37.08,12.216 L37.08,12.792 L36.992,14.504 L36.168,14.504 L36.168,13 L33.064,13 Z M33.968,10.504 C33.8239993,11.2720038 33.6373345,11.8426648 33.408,12.216 L35.536,12.216 L35.536,8.552 L34.304,8.552 C34.2719998,8.7386676 34.2426668,8.91066588 34.216,9.068 C34.1893332,9.22533412 34.1640001,9.37866592 34.14,9.528 C34.1159999,9.67733408 34.0906668,9.82933256 34.064,9.984 C34.0373332,10.1386674 34.0053335,10.311999 33.968,10.504 Z M39.424,13.096 C39.1786654,13.096 38.9440011,13.0506671 38.72,12.96 C38.4959989,12.8693329 38.2973342,12.7360009 38.124,12.56 C37.9506658,12.3839991 37.8133338,12.1680013 37.712,11.912 C37.6106662,11.6559987 37.56,11.365335 37.56,11.04 C37.56,10.714665 37.6106662,10.4240013 37.712,10.168 C37.8133338,9.91199872 37.9506658,9.69600088 38.124,9.52 C38.2973342,9.34399912 38.4959989,9.2093338 38.72,9.116 C38.9440011,9.0226662 39.1786654,8.976 39.424,8.976 C39.6693346,8.976 39.9053322,9.0226662 40.132,9.116 C40.3586678,9.2093338 40.5573325,9.34399912 40.728,9.52 C40.8986675,9.69600088 41.0359995,9.91199872 41.14,10.168 C41.2440005,10.4240013 41.296,10.714665 41.296,11.04 C41.296,11.365335 41.2440005,11.6559987 41.14,11.912 C41.0359995,12.1680013 40.8986675,12.3839991 40.728,12.56 C40.5573325,12.7360009 40.3586678,12.8693329 40.132,12.96 C39.9053322,13.0506671 39.6693346,13.096 39.424,13.096 Z M39.424,12.344 C39.7120014,12.344 39.9386658,12.2253345 40.104,11.988 C40.2693342,11.7506655 40.352,11.4346686 40.352,11.04 C40.352,10.639998 40.2693342,10.3213345 40.104,10.084 C39.9386658,9.84666548 39.7120014,9.728 39.424,9.728 C39.1359986,9.728 38.9106675,9.84666548 38.748,10.084 C38.5853325,10.3213345 38.504,10.639998 38.504,11.04 C38.504,11.4346686 38.5853325,11.7506655 38.748,11.988 C38.9106675,12.2253345 39.1359986,12.344 39.424,12.344 Z M43.848,13.096 C43.581332,13.096 43.3320012,13.0506671 43.1,12.96 C42.8679988,12.8693329 42.6666675,12.7360009 42.496,12.56 C42.3253325,12.3839991 42.1920005,12.1680013 42.096,11.912 C41.9999995,11.6559987 41.952,11.365335 41.952,11.04 C41.952,10.714665 42.0053328,10.4240013 42.112,10.168 C42.2186672,9.91199872 42.3626658,9.69600088 42.544,9.52 C42.7253342,9.34399912 42.9346655,9.2093338 43.172,9.116 C43.4093345,9.0226662 43.6586654,8.976 43.92,8.976 C44.1760013,8.976 44.3959991,9.01866624 44.58,9.104 C44.7640009,9.18933376 44.9279993,9.29333272 45.072,9.416 L44.624,10.016 C44.5173328,9.92533288 44.4120005,9.85466692 44.308,9.804 C44.2039995,9.75333308 44.0906673,9.728 43.968,9.728 C43.6479984,9.728 43.3893343,9.84666548 43.192,10.084 C42.9946657,10.3213345 42.896,10.639998 42.896,11.04 C42.896,11.4346686 42.9933324,11.7506655 43.188,11.988 C43.3826676,12.2253345 43.6346651,12.344 43.944,12.344 C44.0986674,12.344 44.2439993,12.310667 44.38,12.244 C44.5160007,12.177333 44.6399994,12.0986671 44.752,12.008 L45.128,12.616 C44.9413324,12.7760008 44.7373344,12.8959996 44.516,12.976 C44.2946656,13.0560004 44.0720011,13.096 43.848,13.096 Z M46.76,13 L46.76,9.8 L45.528,9.8 L45.528,9.072 L48.92,9.072 L48.92,9.8 L47.688,9.8 L47.688,13 L46.76,13 Z M49.976,14.616 C49.8693328,14.616 49.7760004,14.6093334 49.696,14.596 C49.6159996,14.5826666 49.538667,14.5626668 49.464,14.536 L49.632,13.816 C49.6693335,13.8266667 49.7133331,13.8386666 49.764,13.852 C49.8146669,13.8653334 49.8639998,13.872 49.912,13.872 C50.120001,13.872 50.286666,13.809334 50.412,13.684 C50.537334,13.558666 50.6319997,13.3973343 50.696,13.2 L50.768,12.952 L49.224,9.072 L50.16,9.072 L50.84,11 C50.898667,11.1706675 50.9559997,11.3506657 51.012,11.54 C51.0680003,11.7293343 51.125333,11.9173324 51.184,12.104 L51.216,12.104 C51.2640002,11.9226658 51.3133331,11.7373343 51.364,11.548 C51.4146669,11.3586657 51.4639998,11.1760009 51.512,11 L52.104,9.072 L52.992,9.072 L51.568,13.176 C51.4879996,13.4000011 51.4000005,13.5999991 51.304,13.776 C51.2079995,13.9520009 51.097334,14.102666 50.972,14.228 C50.846666,14.353334 50.7026675,14.449333 50.54,14.516 C50.3773325,14.582667 50.1893344,14.616 49.976,14.616 Z M53.672,13 L53.672,9.072 L57.008,9.072 L57.008,13 L56.088,13 L56.088,9.8 L54.592,9.8 L54.592,13 L53.672,13 Z M58.184,13 L58.184,9.072 L59.104,9.072 L59.104,10.576 L60.672,10.576 L60.672,9.072 L61.592,9.072 L61.592,13 L60.672,13 L60.672,11.384 L59.104,11.384 L59.104,13 L58.184,13 Z M64.368,13.096 C64.1226654,13.096 63.8880011,13.0506671 63.664,12.96 C63.4399989,12.8693329 63.2413342,12.7360009 63.068,12.56 C62.8946658,12.3839991 62.7573338,12.1680013 62.656,11.912 C62.5546662,11.6559987 62.504,11.365335 62.504,11.04 C62.504,10.714665 62.5546662,10.4240013 62.656,10.168 C62.7573338,9.91199872 62.8946658,9.69600088 63.068,9.52 C63.2413342,9.34399912 63.4399989,9.2093338 63.664,9.116 C63.8880011,9.0226662 64.1226654,8.976 64.368,8.976 C64.6133346,8.976 64.8493322,9.0226662 65.076,9.116 C65.3026678,9.2093338 65.5013325,9.34399912 65.672,9.52 C65.8426675,9.69600088 65.9799995,9.91199872 66.084,10.168 C66.1880005,10.4240013 66.24,10.714665 66.24,11.04 C66.24,11.365335 66.1880005,11.6559987 66.084,11.912 C65.9799995,12.1680013 65.8426675,12.3839991 65.672,12.56 C65.5013325,12.7360009 65.3026678,12.8693329 65.076,12.96 C64.8493322,13.0506671 64.6133346,13.096 64.368,13.096 Z M64.368,12.344 C64.6560014,12.344 64.8826658,12.2253345 65.048,11.988 C65.2133342,11.7506655 65.296,11.4346686 65.296,11.04 C65.296,10.639998 65.2133342,10.3213345 65.048,10.084 C64.8826658,9.84666548 64.6560014,9.728 64.368,9.728 C64.0799986,9.728 63.8546675,9.84666548 63.692,10.084 C63.5293325,10.3213345 63.448,10.639998 63.448,11.04 C63.448,11.4346686 63.5293325,11.7506655 63.692,11.988 C63.8546675,12.2253345 64.0799986,12.344 64.368,12.344 Z M68.752,13 L68.752,9.072 L70.344,9.072 C70.5626678,9.072 70.7639991,9.08933316 70.948,9.124 C71.1320009,9.15866684 71.2919993,9.2159996 71.428,9.296 C71.5640007,9.3760004 71.6706663,9.48133268 71.748,9.612 C71.8253337,9.74266732 71.864,9.9013324 71.864,10.088 C71.864,10.280001 71.8093339,10.4493326 71.7,10.596 C71.5906661,10.7426674 71.4266678,10.8479997 71.208,10.912 L71.208,10.944 C71.4426678,11.002667 71.6373326,11.1039993 71.792,11.248 C71.9466674,11.3920007 72.024,11.5999986 72.024,11.872 C72.024,12.0693343 71.9826671,12.238666 71.9,12.38 C71.8173329,12.521334 71.7040007,12.6386662 71.56,12.732 C71.4159993,12.8253338 71.2466676,12.8933331 71.052,12.936 C70.8573324,12.9786669 70.6480011,13 70.424,13 L68.752,13 Z M69.656,10.664 L70.256,10.664 C70.5120013,10.664 70.6959994,10.6213338 70.808,10.536 C70.9200006,10.4506662 70.976,10.3333341 70.976,10.184 C70.976,10.0293326 70.9226672,9.90933376 70.816,9.824 C70.7093328,9.73866624 70.5306679,9.696 70.28,9.696 L69.656,9.696 L69.656,10.664 Z M69.656,12.376 L70.36,12.376 C70.626668,12.376 70.8199994,12.3253338 70.94,12.224 C71.0600006,12.1226662 71.12,11.9866675 71.12,11.816 C71.12,11.6559992 71.0560006,11.5280005 70.928,11.432 C70.7999994,11.3359995 70.6000014,11.288 70.328,11.288 L69.656,11.288 L69.656,12.376 Z" id="Доступнов" fill="#FFFFFF" fill-rule="nonzero"></path>
                <path d="M36.998,25.168 C36.3819969,25.168 35.810336,25.0653344 35.283,24.86 C34.755664,24.6546656 34.2983353,24.3513353 33.911,23.95 C33.5236647,23.5486647 33.2226677,23.0540029 33.008,22.466 C32.7933323,21.8779971 32.686,21.2060038 32.686,20.45 C32.686,19.7033296 32.7979989,19.0336696 33.022,18.441 C33.2460011,17.8483304 33.5516647,17.3466687 33.939,16.936 C34.3263353,16.5253313 34.783664,16.2126677 35.311,15.998 C35.838336,15.7833323 36.4053303,15.676 37.012,15.676 C37.6653366,15.676 38.2183311,15.7949988 38.671,16.033 C39.1236689,16.2710012 39.4946652,16.5393318 39.784,16.838 L38.916,17.888 C38.6826655,17.6639989 38.4236681,17.4750008 38.139,17.321 C37.8543319,17.1669992 37.4973355,17.09 37.068,17.09 C36.6573313,17.09 36.286335,17.1669992 35.955,17.321 C35.623665,17.4750008 35.3390012,17.6943319 35.101,17.979 C34.8629988,18.2636681 34.6786673,18.6113313 34.548,19.022 C34.4173327,19.4326687 34.352,19.8946641 34.352,20.408 C34.352,21.4533386 34.5876643,22.2723304 35.059,22.865 C35.5303357,23.4576696 36.2279954,23.754 37.152,23.754 C37.4133346,23.754 37.6606655,23.7190004 37.894,23.649 C38.1273345,23.5789997 38.3186659,23.4786673 38.468,23.348 L38.468,21.374 L36.732,21.374 L36.732,20.044 L39.924,20.044 L39.924,24.076 C39.6159985,24.3840015 39.2076692,24.6429989 38.699,24.853 C38.1903308,25.0630011 37.6233365,25.168 36.998,25.168 Z M44.628,25.168 C44.1986645,25.168 43.788002,25.0886675 43.396,24.93 C43.003998,24.7713325 42.6563349,24.5380015 42.353,24.23 C42.0496651,23.9219985 41.8093342,23.5440022 41.632,23.096 C41.4546658,22.6479978 41.366,22.1393362 41.366,21.57 C41.366,21.0006638 41.4546658,20.4920022 41.632,20.044 C41.8093342,19.5959978 42.0496651,19.2180015 42.353,18.91 C42.6563349,18.6019985 43.003998,18.3663342 43.396,18.203 C43.788002,18.0396658 44.1986645,17.958 44.628,17.958 C45.0573355,17.958 45.4703314,18.0396658 45.867,18.203 C46.2636686,18.3663342 46.6113318,18.6019985 46.91,18.91 C47.2086682,19.2180015 47.4489991,19.5959978 47.631,20.044 C47.8130009,20.4920022 47.904,21.0006638 47.904,21.57 C47.904,22.1393362 47.8130009,22.6479978 47.631,23.096 C47.4489991,23.5440022 47.2086682,23.9219985 46.91,24.23 C46.6113318,24.5380015 46.2636686,24.7713325 45.867,24.93 C45.4703314,25.0886675 45.0573355,25.168 44.628,25.168 Z M44.628,23.852 C45.1320025,23.852 45.5286652,23.6443354 45.818,23.229 C46.1073348,22.8136646 46.252,22.2606701 46.252,21.57 C46.252,20.8699965 46.1073348,20.3123354 45.818,19.897 C45.5286652,19.4816646 45.1320025,19.274 44.628,19.274 C44.1239975,19.274 43.7296681,19.4816646 43.445,19.897 C43.1603319,20.3123354 43.018,20.8699965 43.018,21.57 C43.018,22.2606701 43.1603319,22.8136646 43.445,23.229 C43.7296681,23.6443354 44.1239975,23.852 44.628,23.852 Z M52.314,25.168 C51.8846645,25.168 51.474002,25.0886675 51.082,24.93 C50.689998,24.7713325 50.3423349,24.5380015 50.039,24.23 C49.7356652,23.9219985 49.4953342,23.5440022 49.318,23.096 C49.1406658,22.6479978 49.052,22.1393362 49.052,21.57 C49.052,21.0006638 49.1406658,20.4920022 49.318,20.044 C49.4953342,19.5959978 49.7356652,19.2180015 50.039,18.91 C50.3423349,18.6019985 50.689998,18.3663342 51.082,18.203 C51.474002,18.0396658 51.8846645,17.958 52.314,17.958 C52.7433355,17.958 53.1563314,18.0396658 53.553,18.203 C53.9496687,18.3663342 54.2973318,18.6019985 54.596,18.91 C54.8946682,19.2180015 55.1349991,19.5959978 55.317,20.044 C55.4990009,20.4920022 55.59,21.0006638 55.59,21.57 C55.59,22.1393362 55.4990009,22.6479978 55.317,23.096 C55.1349991,23.5440022 54.8946682,23.9219985 54.596,24.23 C54.2973318,24.5380015 53.9496687,24.7713325 53.553,24.93 C53.1563314,25.0886675 52.7433355,25.168 52.314,25.168 Z M52.314,23.852 C52.8180025,23.852 53.2146652,23.6443354 53.504,23.229 C53.7933348,22.8136646 53.938,22.2606701 53.938,21.57 C53.938,20.8699965 53.7933348,20.3123354 53.504,19.897 C53.2146652,19.4816646 52.8180025,19.274 52.314,19.274 C51.8099975,19.274 51.4156681,19.4816646 51.131,19.897 C50.8463319,20.3123354 50.704,20.8699965 50.704,21.57 C50.704,22.2606701 50.8463319,22.8136646 51.131,23.229 C51.4156681,23.6443354 51.8099975,23.852 52.314,23.852 Z M59.58,28.038 C59.1693313,28.038 58.7890017,28.000667 58.439,27.926 C58.0889983,27.851333 57.7880013,27.7393341 57.536,27.59 C57.2839987,27.4406659 57.0856674,27.2540011 56.941,27.03 C56.7963326,26.8059989 56.724,26.5446682 56.724,26.246 C56.724,25.9566652 56.8079992,25.6883346 56.976,25.441 C57.1440008,25.1936654 57.3866651,24.972001 57.704,24.776 L57.704,24.72 C57.5266658,24.6079994 57.3796672,24.4586676 57.263,24.272 C57.1463327,24.0853324 57.088,23.8520014 57.088,23.572 C57.088,23.301332 57.1649992,23.0563344 57.319,22.837 C57.4730008,22.6176656 57.647999,22.4380007 57.844,22.298 L57.844,22.242 C57.6106655,22.0646658 57.4030009,21.8196682 57.221,21.507 C57.0389991,21.1943318 56.948,20.8326687 56.948,20.422 C56.948,20.029998 57.0226659,19.6800015 57.172,19.372 C57.3213341,19.0639985 57.5196654,18.8050011 57.767,18.595 C58.0143346,18.3849989 58.3013317,18.2263339 58.628,18.119 C58.9546683,18.0116661 59.2999982,17.958 59.664,17.958 C59.8506676,17.958 60.0303325,17.9743332 60.203,18.007 C60.3756675,18.0396668 60.5319993,18.0793331 60.672,18.126 L63.136,18.126 L63.136,19.316 L61.876,19.316 C61.9880006,19.4466673 62.081333,19.6123323 62.156,19.813 C62.230667,20.0136677 62.268,20.2353321 62.268,20.478 C62.268,20.8606686 62.200334,21.1966652 62.065,21.486 C61.929666,21.7753348 61.7453345,22.017999 61.512,22.214 C61.2786655,22.410001 61.0033349,22.5593328 60.686,22.662 C60.3686651,22.7646672 60.0280018,22.816 59.664,22.816 C59.5146659,22.816 59.3606675,22.8020001 59.202,22.774 C59.0433325,22.7459999 58.8846675,22.6993337 58.726,22.634 C58.6233328,22.7273338 58.541667,22.8206662 58.481,22.914 C58.420333,23.0073338 58.39,23.1333325 58.39,23.292 C58.39,23.488001 58.4716658,23.6419994 58.635,23.754 C58.7983342,23.8660006 59.0899979,23.922 59.51,23.922 L60.728,23.922 C61.5586708,23.922 62.1863312,24.0549987 62.611,24.321 C63.0356688,24.5870013 63.248,25.0186637 63.248,25.616 C63.248,25.9520017 63.1616675,26.2693318 62.989,26.568 C62.8163325,26.8666682 62.5713349,27.1233323 62.254,27.338 C61.9366651,27.5526677 61.5516689,27.7229994 61.099,27.849 C60.6463311,27.9750006 60.1400028,28.038 59.58,28.038 Z M59.664,21.808 C59.9906683,21.808 60.2706655,21.6890012 60.504,21.451 C60.7373345,21.2129988 60.854,20.8700022 60.854,20.422 C60.854,19.9926645 60.7396678,19.6590012 60.511,19.421 C60.2823322,19.1829988 60.0000017,19.064 59.664,19.064 C59.3279983,19.064 59.0433345,19.1806655 58.81,19.414 C58.5766655,19.6473345 58.46,19.9833311 58.46,20.422 C58.46,20.8700022 58.5766655,21.2129988 58.81,21.451 C59.0433345,21.6890012 59.3279983,21.808 59.664,21.808 Z M59.832,26.988 C60.3920028,26.988 60.8423316,26.8783344 61.183,26.659 C61.5236684,26.4396656 61.694,26.1806682 61.694,25.882 C61.694,25.611332 61.5890011,25.4293338 61.379,25.336 C61.168999,25.2426662 60.868002,25.196 60.476,25.196 L59.538,25.196 C59.1646648,25.196 58.8520013,25.1633337 58.6,25.098 C58.2453316,25.368668 58.068,25.6719983 58.068,26.008 C58.068,26.3160015 58.2243318,26.5563325 58.537,26.729 C58.8496682,26.9016675 59.2813306,26.988 59.832,26.988 Z M66.034,25.168 C65.4553304,25.168 65.0493345,24.9953351 64.816,24.65 C64.5826655,24.3046649 64.466,23.8333363 64.466,23.236 L64.466,15.116 L66.076,15.116 L66.076,23.32 C66.076,23.516001 66.113333,23.6536663 66.188,23.733 C66.262667,23.8123337 66.3419996,23.852 66.426,23.852 L66.531,23.852 C66.5636668,23.852 66.6126663,23.8426668 66.678,23.824 L66.888,25.028 C66.6733323,25.1213338 66.3886684,25.168 66.034,25.168 Z M71.2,25.168 C70.7239976,25.168 70.2806687,25.0863341 69.87,24.923 C69.4593313,24.7596659 69.1000015,24.5240015 68.792,24.216 C68.4839985,23.9079985 68.2436675,23.5323355 68.071,23.089 C67.8983325,22.6456644 67.812,22.1393362 67.812,21.57 C67.812,21.0099972 67.9006658,20.5060022 68.078,20.058 C68.2553342,19.6099978 68.4909985,19.2320015 68.785,18.924 C69.0790015,18.6159985 69.4173314,18.3780008 69.8,18.21 C70.1826686,18.0419992 70.5746647,17.958 70.976,17.958 C71.442669,17.958 71.8533316,18.0373325 72.208,18.196 C72.5626684,18.3546675 72.8589988,18.5786652 73.097,18.868 C73.3350012,19.1573348 73.5146661,19.5026647 73.636,19.904 C73.7573339,20.3053353 73.818,20.7439976 73.818,21.22 C73.818,21.3786675 73.8110001,21.5279993 73.797,21.668 C73.7829999,21.8080007 73.7666668,21.9199996 73.748,22.004 L69.38,22.004 C69.454667,22.6200031 69.6716649,23.093665 70.031,23.425 C70.3903351,23.756335 70.8499972,23.922 71.41,23.922 C71.7086682,23.922 71.9863321,23.8776671 72.243,23.789 C72.499668,23.7003329 72.7539987,23.5766675 73.006,23.418 L73.552,24.426 C73.2253317,24.6406677 72.8613353,24.8179993 72.46,24.958 C72.0586647,25.0980007 71.6386689,25.168 71.2,25.168 Z M69.366,20.912 L72.418,20.912 C72.418,20.3799973 72.3036678,19.9623348 72.075,19.659 C71.8463322,19.3556652 71.4940024,19.204 71.018,19.204 C70.6073313,19.204 70.2480015,19.3486652 69.94,19.638 C69.6319985,19.9273348 69.440667,20.3519972 69.366,20.912 Z M78.298,25 L78.298,15.844 L81.182,15.844 C81.6860025,15.844 82.1549978,15.8906662 82.589,15.984 C83.0230022,16.0773338 83.3986651,16.2359989 83.716,16.46 C84.0333349,16.6840011 84.2806658,16.9756649 84.458,17.335 C84.6353342,17.6943351 84.724,18.1399973 84.724,18.672 C84.724,19.1760025 84.6353342,19.6146648 84.458,19.988 C84.2806658,20.3613352 84.0356682,20.6716654 83.723,20.919 C83.4103318,21.1663346 83.0416688,21.3483328 82.617,21.465 C82.1923312,21.5816673 81.7326691,21.64 81.238,21.64 L79.922,21.64 L79.922,25 L78.298,25 Z M79.922,20.338 L81.112,20.338 C82.4560067,20.338 83.128,19.7826722 83.128,18.672 C83.128,18.0933304 82.9530017,17.6943344 82.603,17.475 C82.2529982,17.2556656 81.7373367,17.146 81.056,17.146 L79.922,17.146 L79.922,20.338 Z M87.874,25.168 C87.2953304,25.168 86.8893345,24.9953351 86.656,24.65 C86.4226655,24.3046649 86.306,23.8333363 86.306,23.236 L86.306,15.116 L87.916,15.116 L87.916,23.32 C87.916,23.516001 87.953333,23.6536663 88.028,23.733 C88.102667,23.8123337 88.1819996,23.852 88.266,23.852 L88.371,23.852 C88.4036668,23.852 88.4526663,23.8426668 88.518,23.824 L88.728,25.028 C88.5133323,25.1213338 88.2286684,25.168 87.874,25.168 Z M91.766,25.168 C91.1593303,25.168 90.6693352,24.9836685 90.296,24.615 C89.9226648,24.2463315 89.736,23.7586697 89.736,23.152 C89.736,22.7879982 89.8129992,22.4636681 89.967,22.179 C90.1210008,21.8943319 90.363665,21.6493344 90.695,21.444 C91.026335,21.2386656 91.4463308,21.0660007 91.955,20.926 C92.4636692,20.7859993 93.0726631,20.678667 93.782,20.604 C93.7726666,20.4266658 93.7470002,20.2563342 93.705,20.093 C93.6629998,19.9296658 93.5930005,19.7850006 93.495,19.659 C93.3969995,19.5329994 93.2686675,19.4350003 93.11,19.365 C92.9513325,19.2949997 92.7553345,19.26 92.522,19.26 C92.1859983,19.26 91.8570016,19.3253327 91.535,19.456 C91.2129984,19.5866673 90.8980015,19.7453324 90.59,19.932 L90.002,18.854 C90.3846686,18.6113321 90.8139976,18.4013342 91.29,18.224 C91.7660024,18.0466658 92.2793306,17.958 92.83,17.958 C93.688671,17.958 94.3303312,18.2123308 94.755,18.721 C95.1796688,19.2296692 95.392,19.9646619 95.392,20.926 L95.392,25 L94.062,25 L93.95,24.244 L93.894,24.244 C93.5859985,24.5053346 93.2570017,24.7246658 92.907,24.902 C92.5569982,25.0793342 92.1766687,25.168 91.766,25.168 Z M92.284,23.908 C92.5640014,23.908 92.8183322,23.8426673 93.047,23.712 C93.2756678,23.5813327 93.5206654,23.3946679 93.782,23.152 L93.782,21.612 C93.315331,21.6680003 92.9233349,21.7426662 92.606,21.836 C92.2886651,21.9293338 92.032001,22.0343328 91.836,22.151 C91.639999,22.2676673 91.5000004,22.4006659 91.416,22.55 C91.3319996,22.6993341 91.29,22.8579992 91.29,23.026 C91.29,23.3340015 91.3833324,23.5579993 91.57,23.698 C91.7566676,23.8380007 91.9946652,23.908 92.284,23.908 Z M97.786,27.828 C97.5993324,27.828 97.4360007,27.8163334 97.296,27.793 C97.1559993,27.7696666 97.0206673,27.7346669 96.89,27.688 L97.184,26.428 C97.2493337,26.4466668 97.3263329,26.4676666 97.415,26.491 C97.5036671,26.5143334 97.5899996,26.526 97.674,26.526 C98.0380018,26.526 98.3296656,26.4163344 98.549,26.197 C98.7683344,25.9776656 98.9339994,25.6953351 99.046,25.35 L99.172,24.916 L96.47,18.126 L98.108,18.126 L99.298,21.5 C99.4006672,21.7986682 99.5009995,22.113665 99.599,22.445 C99.6970005,22.776335 99.7973328,23.1053317 99.9,23.432 L99.956,23.432 C100.04,23.1146651 100.126333,22.790335 100.215,22.459 C100.303667,22.127665 100.39,21.8080015 100.474,21.5 L101.51,18.126 L103.064,18.126 L100.572,25.308 C100.431999,25.700002 100.278001,26.0499985 100.11,26.358 C99.9419992,26.6660015 99.7483344,26.9296656 99.529,27.149 C99.3096656,27.3683344 99.0576681,27.5363327 98.773,27.653 C98.4883319,27.7696673 98.1593352,27.828 97.786,27.828 Z" id="GooglePlay" fill="#FFFFFF" fill-rule="nonzero"></path>
            </g>
        </g>
    </g>
</svg>