<svg xmlns="http://www.w3.org/2000/svg" width="258" height="275" viewBox="0 0 258 275">
  <defs>
    <style>
      .cls-1 {
        fill-rule: evenodd;
      }
    </style>
  </defs>
  <path id="Фигура_1" data-name="Фигура 1" class="cls-1" d="M49.653,104.243h0.564l12.978-11,2.821-10.477,1.693-7.334,1.128-4.191,9.028,3.143L88.586,47.669,101,61.288h0.565l25.391-38.24,15.8-13.62h0.565V11l-9.592,16.239-0.565,1.572-4.514,16.763L125.826,57.1v1.048h0.564l16.928-22L140.5,72.289h0.565L162.5,54.479l1.128,14.144H164.2l8.463-7.334v1.048L164.2,78.575,146.7,90.623l-7.335,15.715,74.48-3.143-14.67-31.43-6.207,6.286-5.078-5.762-7.9-29.335L170.4,51.336h-0.564L151.217,17.81l-0.564-1.048L146.139,0l-23.7,19.906-15.8,23.572-0.564,1.048-0.565-1.048-5.078-6.286-5.642,8.381-0.564,1.048-6.207-9.953H87.458L75.044,67.574V68.1l-9.592-3.143H64.888L59.246,88.528l-0.564,2.1-8.464,12.048ZM74.48,98.481V96.909L86.329,75.956h1.129l5.078,6.286H93.1l9.028-12.048,12.978-5.238h0.564l-2.821,17.81,7.9-4.715h1.128l7.336,18.334v0.524h-0.565l-9.592-7.334h-0.564l-11.849,7.334h-0.564V78.575h-0.565l-3.385,2.619-3.385,3.667-6.207,7.858H91.407L86.893,88,75.044,98.481H74.48ZM123.569,7.857A3.562,3.562,0,0,1,124.7,8.905a3.258,3.258,0,0,1,.564,1.572,3.258,3.258,0,0,1-.564,1.572,3.563,3.563,0,0,1-1.129,1.048C67.895,15.54,21.038,52.079,9.028,101.1c-12.7,51.838,16.321,106.285,69.966,128.863a2.8,2.8,0,0,1,0,2.619,3.4,3.4,0,0,1-3.385,1.571C20.521,211.032-9.749,155.144,2.821,101.1,15.03,48.613,64.877,9.8,123.569,7.857Zm-47.4,201.676a1.245,1.245,0,0,0-1.128,1.048,1.144,1.144,0,0,0,.564,1.047,12.948,12.948,0,0,0,3.385,2.1,12,12,0,0,1,3.385,1.571,6.749,6.749,0,0,1,2.257,3.667,5.146,5.146,0,0,0-1.128.524,3.675,3.675,0,0,0-1.129,1.048,2.272,2.272,0,0,0,0,2.095A3.077,3.077,0,0,0,85.2,224.2a2.139,2.139,0,0,1,1.129,0,0.978,0.978,0,0,1,.564.524,0.785,0.785,0,0,1,0,.524l0.564,1.048,31.6,34.573,14.106,13.619a2.16,2.16,0,0,0,1.693.524,2.072,2.072,0,0,0,1.129-.524,13.5,13.5,0,0,0,2.821-2.1,11.1,11.1,0,0,0,2.821-4.191,9.164,9.164,0,0,0,0-5.762l-20.313-16.762a36.578,36.578,0,0,1-3.385-3.667,35.368,35.368,0,0,1-2.257-3.143l-3.386-5.239a7.87,7.87,0,0,0-5.642,0,0.905,0.905,0,0,1-.564.524,1.443,1.443,0,0,1-1.129-.524c-1.654-1.567-6.8-5.677-6.206-6.286a0.615,0.615,0,0,1,.564,0c6.125,2.147,12.054,4.383,18.055,6.81,8.076,3.266,15.876,6.714,23.7,10.477l5.078,2.619,5.078,2.619a17.67,17.67,0,0,1,4.514,2.619,16.545,16.545,0,0,1,3.385,3.667h2.822a9.686,9.686,0,0,0,2.821-2.095,8.968,8.968,0,0,0,1.693-2.619,8.12,8.12,0,0,0-.565-4.191,9.1,9.1,0,0,0-4.514-4.191c-8.773-4.355-37.069-16.26-53.038-19.9-5.686-1.3-11.234-2.672-16.928-4.191a29.425,29.425,0,0,1-2.257-2.619,18.1,18.1,0,0,0-2.821-3.143c-0.276-.232-0.688-0.546-1.07-0.823a24.614,24.614,0,0,0-2.88-1.8,10.562,10.562,0,0,0-3.385-1.048A10.744,10.744,0,0,0,76.173,209.533Zm13.542,15.191,0.564,1.048,14.67,15.715,12.978,14.143,10.156,10.477,6.207,6.286h1.128a30.694,30.694,0,0,0,2.257-2.619c0.4-.516.768-1.033,1.129-1.572a4.023,4.023,0,0,0,.564-3.666,4.213,4.213,0,0,0-1.693-2.1l-18.056-14.667a47.711,47.711,0,0,1-5.078-5.762,46,46,0,0,1-3.949-6.286,2.667,2.667,0,0,0-1.129-.524,2.915,2.915,0,0,0-2.257.524l-0.564.524-1.129,1.047h-0.564l-7.335-7.857L94.229,226.3l-2.257-1.048Zm17.491,16.763H108.9a53.78,53.78,0,0,1,4.514,3.667,68.276,68.276,0,0,1,7.9,8.905,71.064,71.064,0,0,0,9.592,9.953l0.565,1.047a67.953,67.953,0,0,1-6.207-4.714c-4.154-3.548-6.943-7.107-10.721-11a97.42,97.42,0,0,0-7.335-6.809v-1.048Zm47.961,6.286a2.829,2.829,0,1,1,2.821,2.619A2.738,2.738,0,0,1,155.167,247.773ZM98.178,206.914l23.134,7.334,27.084,0.523-51.346-8.9H96.486Zm-1.693,7.857,74.481,1.048L186.2,213.2a11.34,11.34,0,0,1,3.95-8.905,13.134,13.134,0,0,1,8.463-3.143c6.479,0.384,11.572,5.241,11.85,11,0.3,6.133-4.945,11.627-11.85,12.048a12.472,12.472,0,0,1-7.335-2.095,11.074,11.074,0,0,1-3.949-4.714l-24.263,2.095-2.257.524-1.693,1.047-2.821,2.62H152.91l-13.542-1.572-13.542-2.095-15.8-2.619-9.592-1.572Zm54.167,2.62a2.218,2.218,0,0,1,1.693,2.095,2.3,2.3,0,0,1-2.257,2.095,2.213,2.213,0,0,1-1.693-2.619A2.345,2.345,0,0,1,150.653,217.391Zm39.5-4.715c-0.077-4.428,3.9-8,8.463-7.857a7.858,7.858,0,1,1,0,15.715C194.047,220.678,190.073,217.1,190.15,212.676Zm-5.643,25.668a7.621,7.621,0,1,1,7.9,7.857A7.574,7.574,0,0,1,184.507,238.344Zm-24.262-16.763a28.9,28.9,0,0,0,5.642,4.191,36.66,36.66,0,0,0,7.9,3.143,79.477,79.477,0,0,1,8.463,3.143,10.177,10.177,0,0,1,4.514-4.191,11.192,11.192,0,0,1,5.643-1.047,12.139,12.139,0,0,1,8.463,3.143,10.405,10.405,0,0,1,3.386,8.381c-0.027,7.029-6.719,12.3-13.542,11.524-6.791-.774-11.9-7.338-10.156-14.143-2.535-.967-4.965-2.007-7.335-3.143-2.338-1.12-6.155-3.259-9.593-4.715a67.651,67.651,0,0,0-7.335-2.619v-0.524l2.821-2.619Zm55.3-15.191a2.929,2.929,0,0,0,.564,3.667,3.528,3.528,0,0,0,3.95.524c30.916-28.823,44.459-70.279,34.983-110C244.857,57.9,209.5,23.445,163.066,11.524a3.249,3.249,0,0,0-3.385,2.1,2.868,2.868,0,0,0,1.128,3.143c45.412,11.687,79.564,45.549,88.586,86.956C257.556,141.173,244.165,179.576,215.541,206.39ZM37.8,111.053c-4.9-.734-9.421,2.212-16.927,5.762-1.017.48-3.148,1.484-3.386,3.143-0.091.64,0.388,1.84,0,2.095-0.28.184-.727-0.174-1.128,0A1.35,1.35,0,0,0,15.8,123.1,14.643,14.643,0,0,1,14.67,125.2c-0.765,1.291-1.394,2.129-1.128,3.143,0.112,0.429.706,1.032,0.564,1.572-0.207.786-1.476,0.8-1.693,1.571-0.207.742,0.864,1.416,0.564,2.095a1.9,1.9,0,0,1-.564.524,2.529,2.529,0,0,0-.564,1.572c-0.048.709-.7,15.177,9.028,23.572a31.916,31.916,0,0,0,18.056,7.334,33.1,33.1,0,0,0,7.9-1.572,32.014,32.014,0,0,0,6.771-3.143L51.91,148.245a17.951,17.951,0,0,1-2.821,1.571,13.6,13.6,0,0,1-3.385,1.048c-1.158.112-2.1-.184-2.821,0a0.9,0.9,0,0,1-.564,0,3.179,3.179,0,0,1-.564-0.524,0.984,0.984,0,0,0-1.128,0,2.224,2.224,0,0,0,0,.524c-0.325.515-3.958-.305-6.771-2.619a14.754,14.754,0,0,1-3.385-4.191,8.349,8.349,0,0,0-.564-1.048,1.7,1.7,0,0,1-.564-1.047,5.883,5.883,0,0,1,.564-1.048,2.365,2.365,0,0,0-.564-1.571,4.039,4.039,0,0,1,0-3.143,11.291,11.291,0,0,1,2.821-7.334c3.891-4.246,11.806-5.58,19.749-2.095a2.7,2.7,0,0,0,1.129-1.572c0.244-1.2-.983-2.153-0.564-3.143,0.335-.792,1.466-0.766,1.693-1.571,0.2-.7-0.544-1.27-0.564-2.1a2.845,2.845,0,0,1,.564-1.571,6.582,6.582,0,0,0,.564-4.191,15.773,15.773,0,0,0-4.514-1.048c-1.412-.1-2.251.034-3.386-0.523-0.924-.454-1.342-1.018-2.257-1.048-0.954-.032-1.46.55-2.372,0.954A7.389,7.389,0,0,1,37.8,111.053Zm22.005,2.095v2.619a11.027,11.027,0,0,1,0,1.569,1.252,1.252,0,0,0,0,1.05,3.188,3.188,0,0,1,.564.524,0.658,0.658,0,0,1,0,.524,3.642,3.642,0,0,1-.562.542,1.365,1.365,0,0,0,0,1.023,8.143,8.143,0,0,1-.007,1.054c-0.005.531,0,1.756,0,2.095,0.01,2.2.369,27.655,0.564,41.383,2.948,0.484,4.628,1.794,4.514,2.619-0.108.785-1.9,1.579-4.514,1.572l-1.693-.524H50.218a0.821,0.821,0,0,0-.564,1.048,0.914,0.914,0,0,0,1.128.524h64.324a0.906,0.906,0,0,0,.564-1.048,0.882,0.882,0,0,0-.564-0.524H77.3a1.761,1.761,0,0,1,0-2.619H89.715a2.6,2.6,0,0,0,1.129.524,3.3,3.3,0,0,0,2.257-.524,1.728,1.728,0,0,1,1.128-.524,3.383,3.383,0,0,1,.564.524,1.508,1.508,0,0,0,1.129,0,21.622,21.622,0,0,1,2.821,0h1.128l0.564-15.191-5.078-.524H85.2l-1.128-.524H78.43v-3.667H98.178l0.564-2.619v-1.048l-0.564-1.047,0.564-1.572v-5.762l-1.693-3.143H85.2l-2.257-1.048H81.815l-1.129,1.048-1.129-1.048v-3.143h9.028c1.222,0,2.78-.073,3.385,0a5.411,5.411,0,0,0,2.821,0c0.685-.26,1.227-0.727,1.693-0.523,0.274,0.119.28,0.369,0.564,0.523a1.6,1.6,0,0,0,1.129,0,4.264,4.264,0,0,1,1.693,0h0.564V112.624a1.394,1.394,0,0,1-1.128,0,1.224,1.224,0,0,1-.564-0.524H97.614a0.743,0.743,0,0,1-.564.524,0.884,0.884,0,0,1-.564-1.048H95.357l-0.564.524H88.022a20.154,20.154,0,0,1-3.386.524,4.21,4.21,0,0,1-2.821-.524,2.74,2.74,0,0,1-.564-0.524l-13.542-.523a2.705,2.705,0,0,1-.564.523,3.07,3.07,0,0,1-1.693.524H60.938a0.727,0.727,0,0,1,0,.524A1.076,1.076,0,0,1,59.81,113.148ZM18.056,123.1a0.525,0.525,0,1,0-.564-0.524A0.548,0.548,0,0,0,18.056,123.1Zm86.893-7.334a1.912,1.912,0,0,1,1.129,0,4.241,4.241,0,0,0,1.692,0v-2.095h-0.564v-1.048h1.129V112.1H108.9v-0.524h0.564a0.915,0.915,0,0,1,1.129-.523,34.637,34.637,0,0,0,3.949,0h1.693s0.468,0,.564,0c0.909-.04,1.487-0.249,1.693,0a0.529,0.529,0,0,1,0,.523c2.346,0.143,5.8.305,6.81,0a0.709,0.709,0,0,1,.554,0c0.1,0.124-.124.353-0.029,0.524a0.872,0.872,0,0,0,1.129,0c0.107-.169-0.076-0.4.043-0.524a0.692,0.692,0,0,1,.553,0,9.061,9.061,0,0,0,1.1,0h1.129v1.048a1.668,1.668,0,0,0,1.128,0,1.637,1.637,0,0,0,.565-0.524c0.191-.217.376-0.3,0.565-0.524a1.191,1.191,0,0,1,.563-0.523,2.5,2.5,0,0,1,1.129.523,2.507,2.507,0,0,0,1.692,0,2.685,2.685,0,0,1,1.129,2.62h1.128a2.855,2.855,0,0,1,0,.523,0.93,0.93,0,0,0,0,.524,1.3,1.3,0,0,0,1.693,0c0.214-.324-0.217-0.794,0-1.047a1.245,1.245,0,0,1,1.128,0l1.693,1.047h5.078v1.048h-5.642v0.524a13.656,13.656,0,0,1,3.385,12.048,13.938,13.938,0,0,1-5.078,7.857v1.048a12.7,12.7,0,0,1,5.078,3.667c3.594,4.443,3.6,11.7-1.128,18.858v1.048H146.7v1.047h-5.078a4.955,4.955,0,0,0-2.821,1.572,2.368,2.368,0,0,1-1.129,1.047c-0.644.193-1.068-.226-1.692,0-0.595.215-.542,0.727-1.129,1.048a2.5,2.5,0,0,0-1.128.524,2.751,2.751,0,0,1,0,.524,0.7,0.7,0,0,1-.565,0,3.816,3.816,0,0,0-1.692,0,1.037,1.037,0,0,0,0-1.048,1.333,1.333,0,0,0-1.129-.524,1.286,1.286,0,0,0-1.128.524c-0.182.38,0.2,0.812,0,1.048a1.255,1.255,0,0,1-1.129,0h-18.62a2.716,2.716,0,0,1-2.257-1.572,2.2,2.2,0,0,1,0-1.571v-2.619h-3.385v-0.524l29.34,0.524h0.565v-1.048h-26.52a6.98,6.98,0,0,1-1.128-4.191,20.371,20.371,0,0,1,0-4.19,18.891,18.891,0,0,0,.564-5.239c-0.3-2.152-1.326-3.1-1.693-5.238a9.79,9.79,0,0,1,0-3.667c0.394-1.874,1.366-3.441.564-4.714a2.469,2.469,0,0,1-.564-1.048,2.072,2.072,0,0,1,.564-1.572l-0.564-10.476,1.129-2.619h1.128v0.523l16.363-.523a0.966,0.966,0,0,0,.564,1.047,0.831,0.831,0,0,0,.565,0,0.966,0.966,0,0,0,.564-1.047h6.771a0.352,0.352,0,0,0,0,.523,0.422,0.422,0,0,0,.564,0,0.352,0.352,0,0,0,0-.523v-0.524H138.8a0.553,0.553,0,0,0,0,.524,0.827,0.827,0,0,0,1.128,0,0.75,0.75,0,0,0,0-1.048H121.876a1.227,1.227,0,0,1-.564.524,1.393,1.393,0,0,1-1.128,0H104.949a0.648,0.648,0,0,1-.564-0.524A0.743,0.743,0,0,1,104.949,115.767Zm16.927,7.334h6.207a4.142,4.142,0,0,1,0,7.857,4.623,4.623,0,0,0-1.128.524,4.328,4.328,0,0,0-1.129,1.048H124.7a0.509,0.509,0,0,0,0-.524,0.712,0.712,0,0,0-.565,0,2.834,2.834,0,0,1-1.128,0h-1.693v-1.048h0.564s0-1.034,0-1.047a0.582,0.582,0,0,0,0-.524,0.618,0.618,0,0,0-.564,0V125.72a3.1,3.1,0,0,0,0-1.048,1.567,1.567,0,0,1,0-1.047A1.224,1.224,0,0,1,121.876,123.1Zm8.464,38.763a2.971,2.971,0,0,0,1.129,0,1.092,1.092,0,0,1,.564,0,0.883,0.883,0,0,1,.564.524,0.738,0.738,0,0,1,0,.524,1.326,1.326,0,0,1-1.693.524A1.189,1.189,0,0,1,130.34,161.864Zm-6.771-7.333h4.514a5.093,5.093,0,0,0,0-9.953,2.455,2.455,0,0,0-1.128-1.048,3.89,3.89,0,0,0-2.257,0,7.793,7.793,0,0,1-2.257,0,3.041,3.041,0,0,1,.564,2.619,2.81,2.81,0,0,1-.564,1.048v4.191a3.125,3.125,0,0,0,.564,2.619,2.874,2.874,0,0,0,.564.524m37.24-42.955c-1.246.156-2.129,0.479-3.385,0.524-2.114.077-3.56-.32-4.514,0.524-0.824.729-.914,2.059-0.564,3.667v45.573a1.381,1.381,0,0,1,1.128,0,1.26,1.26,0,0,1,.564,1.572,1.812,1.812,0,0,1-.564,1.048,2.051,2.051,0,0,1-1.128.523v1.048h2.821c1.944,0.322,2.967,1.443,2.821,2.095-0.131.585-1.274,1.126-2.821,1.048a3,3,0,0,1-3.386,0h-7.9a1.079,1.079,0,0,0-1.129.524,0.68,0.68,0,0,0,0,.524,1.08,1.08,0,0,0,1.129.524h49.089a2.049,2.049,0,0,1,.564,0,2.137,2.137,0,0,1,1.129.523h0.564a2.134,2.134,0,0,1,1.128-.523,2.056,2.056,0,0,1,.565,0h10.72a1.08,1.08,0,0,0,1.129-.524,0.68,0.68,0,0,0,0-.524,1.079,1.079,0,0,0-1.129-.524h-7.9a0.894,0.894,0,0,1-.564.524,0.971,0.971,0,0,1-.565,0h-5.078a0.968,0.968,0,0,1-.564,0,0.889,0.889,0,0,1-.564-0.524h-5.078a1.553,1.553,0,0,0-.565-0.524,1.926,1.926,0,0,0-1.692,0l-0.565.524H171.53c-1.479-.066-2.343-0.985-2.257-1.571,0.078-.537,1-1.126,2.257-1.048h14.106a1.477,1.477,0,0,1,2.257,0h5.078c0.222-.786.312-1.478,0-1.66s-0.783.276-1.128,0.088a1.126,1.126,0,0,1,0-1.571c0.337-.321.844-0.173,1.128-0.524a0.874,0.874,0,0,0,0-1.024c-0.3-.384-0.837-0.2-1.128-0.547a1.648,1.648,0,0,1,.564-2.1,0.964,0.964,0,0,0,.564-0.459,0.342,0.342,0,0,0,0-.065c-0.028-.238,0-4.5,0-4.714V154a5.725,5.725,0,0,0-.564-0.516,1.816,1.816,0,0,1,.564-0.518,1.576,1.576,0,0,0,0-1.577,44.183,44.183,0,0,1-14.106-.524c-0.763-.155-1.5-0.327-2.257-0.524H171.53v-3.667h19.184v-3.667a1.706,1.706,0,0,1-.564-0.523,1.373,1.373,0,0,1,0-1.572,1.346,1.346,0,0,0,.564-0.524v-0.023a1.029,1.029,0,0,1,.564-0.5,1.751,1.751,0,0,0,.565-1.571,2.146,2.146,0,0,0-1.129-1.586,0.014,0.014,0,0,0,0,.014c0.027,0,0-4.705,0-5.238H174.351a2.6,2.6,0,0,1-2.821-2.619,2.632,2.632,0,0,1,2.821-2.095l8.464,0.523,8.463,0.524,1.129-5.762a16.232,16.232,0,0,1,0-3.667c0.3-2.592,1.169-4.689,0-5.762a2.254,2.254,0,0,0-1.129-.524c-7.525.035-17.052-.027-22-0.524A43.6,43.6,0,0,0,160.809,111.576Zm40.626,0.524a2.289,2.289,0,0,0,1.128,1.572c1.086,0.536,2.877.03,3.95-1.572l16.363,0.524a24.516,24.516,0,0,1,7.335,2.619,18.279,18.279,0,0,1,5.642,4.715,11.639,11.639,0,0,1,1.693,7.857v0.524l6.771,1.048s0.049-2.192,0-2.1a7.628,7.628,0,0,1-1.128-1.047V125.2a1.477,1.477,0,0,0,1.128-1.571,0.957,0.957,0,0,0-.564-0.524,1.587,1.587,0,0,0-1.693.524,52.843,52.843,0,0,1-3.385-4.715,9.765,9.765,0,0,1-1.693-4.191,8.393,8.393,0,0,1,0-2.095,2.927,2.927,0,0,1,2.257,0,2.483,2.483,0,0,1,1.128,1.572c0.611,2.026,3.987,6.673,6.207,11,1.469,2.865,2.865,5.647,1.693,6.81a2.317,2.317,0,0,1-1.693.524v4.19a15.366,15.366,0,0,1-4.514,9.429c-1.126,1.095-5.2,3.516-10.156,4.715a37.8,37.8,0,0,1-8.464,1.048v-1.048a16.422,16.422,0,0,0-3.385.524,15.978,15.978,0,0,1-1.693.524,2.5,2.5,0,0,0-1.693.523,1.132,1.132,0,0,0,0,1.048,18.621,18.621,0,0,1,0,10.477c-0.162.532-.35,1.054-0.564,1.571h-5.642a0.966,0.966,0,0,0-.565-1.047,0.828,0.828,0,0,0-.564,0,0.964,0.964,0,0,0-.564,1.047h-7.335a20.625,20.625,0,0,1-1.693-11l0.564-19.906a1.764,1.764,0,0,0,1.129-1.048,1.81,1.81,0,0,0-1.129-2.095v-5.238a6.7,6.7,0,0,0,1.129-3.143,6.323,6.323,0,0,0,0-1.048V112.1Zm15.8,22.525a2.659,2.659,0,0,1-1.128-3.143,2.3,2.3,0,0,1,1.128-1.048h10.721c1.445,1.316,2.232,3.126,1.693,4.715a6.221,6.221,0,0,1-2.821,2.619,9.775,9.775,0,0,1-3.386,1.048h-4.514a2.2,2.2,0,0,1-2.257-1.572,1.812,1.812,0,0,1,.564-1.571v-1.048Zm-7.9-7.334,11.849,0.524a6.544,6.544,0,0,0-1.693-1.571,7.091,7.091,0,0,0-2.821-1.048l-6.771.524a1.376,1.376,0,0,0-.564,0A10.158,10.158,0,0,1,209.334,127.291Zm6.771,18.858H217.8v1.572h-0.565v0.524h-1.128v-2.1Zm7.9,2.1H225.7v1.047h-0.564v0.524h-0.564v-0.524H224v-1.047ZM45.139,176.008v15.715H59.81v0.524H41.754v1.047h2.821a2.594,2.594,0,0,0,.564,1.572,2.687,2.687,0,0,0,.564.524H56.424a4.637,4.637,0,0,1,1.693-1.572,5.218,5.218,0,0,1,3.386-.524h0.564v-1.047H60.938V191.2a5.839,5.839,0,0,0,.564-5.762,6.363,6.363,0,0,0-3.386-3.143H51.346V180.2H59.81v-4.191H45.139Zm6.207,9.953v3.666H55.3a1.988,1.988,0,0,0,1.693-1.571,1.964,1.964,0,0,0-1.693-2.095h-3.95Zm11.285,8.905h5.642l0.564-2.619H74.48l1.129,2.619h5.078L74.48,176.008H68.838Zm9.028-11.524-1.693,4.19h3.386Zm9.592,11.524c0.423,0.058,6.207,0,6.207,0v-5.239L93.1,189.1a9.562,9.562,0,0,0,1.693-1.048,9.181,9.181,0,0,0,2.821-3.667v-3.667a8.232,8.232,0,0,0-4.514-4.19,8.785,8.785,0,0,0-3.95-.524H81.815a1.254,1.254,0,0,0,0,2.095h7.9v1.048H81.251v15.715Zm5.642-14.144v4.191h3.385a2.143,2.143,0,0,0,0-4.191H86.893Zm12.413-4.714v15.715h14.67v0.524H97.614v1.047h1.129a2.594,2.594,0,0,0,.564,1.572,2.687,2.687,0,0,0,.564.524h10.156a2.822,2.822,0,0,1,1.129-1.572,3.233,3.233,0,0,1,2.257-.524h2.257v-1.047h-1.129v-0.524a5.392,5.392,0,0,0,0-7.858,7.266,7.266,0,0,0-1.692-1.047,7.556,7.556,0,0,0-1.693-.524h-5.643a1.243,1.243,0,0,1-.564-0.524,1.106,1.106,0,0,1,0-1.048,1.241,1.241,0,0,1,.564-0.523h8.464v-4.191H99.307Zm18.055,0v18.858H130.34v-4.715h-6.207a1.7,1.7,0,0,1-1.126-1.118,1.049,1.049,0,0,1,0-.453,1.58,1.58,0,0,1,1.128-1.048h5.643v-4.19h-5.643a1.6,1.6,0,0,1-1.128-1.048,1.105,1.105,0,0,1,0-.524,1.6,1.6,0,0,1,1.128-1.048h6.207v-4.714H117.362ZM132.6,194.866H138.8V189.1h5.078a7.156,7.156,0,0,0,3.95-2.619,6.616,6.616,0,0,0,0-7.334,7.954,7.954,0,0,0-3.95-3.143H132.6V178.1h9.028v-0.524h1.128V178.1h1.129v1.048H132.6v15.715Zm5.642-14.144c-0.02.28,0,4.191,0,4.191h3.386a2.143,2.143,0,0,0,0-4.191h-3.386Zm12.414-4.714v18.858h22.57V176.008h-5.079v14.143H164.2V176.008h-5.079v14.667h-3.385V176.008h-5.078Zm35.547-.524c5.881,0,10.721,4.493,10.721,9.953s-4.84,9.953-10.721,9.953c-6.21-.137-11.024-5.034-10.721-10.477C175.762,179.84,180.42,175.6,186.2,175.484Zm0,5.238a4.719,4.719,0,1,1-4.514,4.715A4.906,4.906,0,0,1,186.2,180.722Zm24.827-.523v1.571h0.564v-0.524h0.564V180.2h-1.128Zm-11.849,14.667h5.642V180.722h3.95v-1.047H209.9v15.191h5.643v-2.1h-0.565V176.532h-0.564v-0.524h-5.078v0.524h-1.693v1.047h-1.128v-1.047h-0.564v-0.524h-6.771v18.858Zm-93.665-8.905v4.19H108.9a2.509,2.509,0,0,0,0-4.19h-3.386Z"/>
</svg>
