<?xml version="1.0"?>
<svg xmlns="http://www.w3.org/2000/svg" height="150px" viewBox="-144 0 480 480" width="150px"><path d="m184 64h-8.472656c-4.105469-36.414062-34.882813-63.9492188-71.527344-64h-16c-36.644531.0507812-67.421875 27.585938-71.527344 64h-8.472656c-4.417969 0-8 3.582031-8 8v32c0 4.417969 3.582031 8 8 8h8v256h-8c-4.417969 0-8 3.582031-8 8v32c0 4.417969 3.582031 8 8 8h8.472656c4.105469 36.414062 34.882813 63.949219 71.527344 64h16c36.644531-.050781 67.421875-27.585938 71.527344-64h8.472656c4.417969 0 8-3.582031 8-8v-32c0-4.417969-3.582031-8-8-8h-8v-256h8c4.417969 0 8-3.582031 8-8v-32c0-4.417969-3.582031-8-8-8zm-96-48h16c27.824219.035156 51.417969 20.464844 55.433594 48h-90.984375c5.671875-9.867188 16.171875-15.964844 27.550781-16v-16c-20.320312.023438-38.425781 12.839844-45.199219 32h-18.234375c4.015625-27.535156 27.609375-47.964844 55.433594-48zm72 308.6875-43.3125 43.3125h-49.375l92.6875-92.6875zm0-152-128 128v-57.375l128-128zm-128 48v-49.375l59.3125-59.3125h49.375zm0-72v-36.6875h36.6875zm0 174.625 128-128v57.375l-115.3125 115.3125h-12.6875zm72 140.6875h-16c-27.824219-.035156-51.417969-20.464844-55.433594-48h90.984375c-5.671875 9.867188-16.171875 15.964844-27.550781 16v16c20.320312-.023438 38.425781-12.839844 45.199219-32h18.234375c-4.015625 27.535156-27.609375 47.964844-55.433594 48zm72-64h-160v-16h160zm-36.6875-32 20.6875-20.6875v20.6875zm36.6875-272h-160v-16h160zm0 0" fill="#D6A354"/></svg>
