<?xml version="1.0"?>
<svg xmlns="http://www.w3.org/2000/svg" height="150px" viewBox="-64 0 496 496" width="150px"><path d="m368 432c0-23.777344-32.046875-43.742188-88-55.070312v-8.929688h16c22.054688 0 40-17.945312 40-40v-72c13.230469 0 24-10.769531 24-24s-10.769531-24-24-24h-16v-120c0-22.054688-17.945312-40-40-40h-9.472656c.898437-2.511719 1.472656-5.183594 1.472656-8v-16c0-13.230469-10.769531-24-24-24h-128c-13.230469 0-24 10.769531-24 24v16c0 2.816406.574219 5.488281 1.472656 8h-9.472656c-22.054688 0-40 17.945312-40 40v120h-16c-13.230469 0-24 10.769531-24 24s10.769531 24 24 24v72c0 22.054688 17.945312 40 40 40h16v8.929688c-55.953125 11.328124-88 31.292968-88 55.070312 0 24.703125 35.472656 45.566406 95.230469 56.457031l1.730469 7.542969h174.078124l1.730469-7.542969c59.757813-10.890625 95.230469-31.753906 95.230469-56.457031zm-280 16v-16h192v16zm144-80v48h-96v-48zm32 48h-16v-48h16zm80-184c0 4.40625-3.59375 8-8 8h-48c-4.40625 0-8-3.59375-8-8s3.59375-8 8-8h48c4.40625 0 8 3.59375 8 8zm-264 64c0-4.40625 3.59375-8 8-8h192c4.40625 0 8 3.59375 8 8v24h-208zm208-22.527344c-2.511719-.898437-5.183594-1.472656-8-1.472656h-192c-2.816406 0-5.488281.574219-8 1.472656v-17.472656c10.414062 0 19.214844-6.710938 22.527344-16h162.953125c3.3125 9.289062 12.113281 16 22.527343 16v17.472656zm-128-209.472656v160h-24v-160zm48 160v-160h24v160zm-16 0h-16v-160h16zm112-136v120h-16c-10.414062 0-19.214844 6.710938-22.527344 16h-17.472656v-160h32c13.230469 0 24 10.769531 24 24zm-192-48v-16c0-4.40625 3.59375-8 8-8h128c4.40625 0 8 3.59375 8 8v16c0 4.40625-3.59375 8-8 8h-128c-4.40625 0-8-3.59375-8-8zm-48 48c0-13.230469 10.769531-24 24-24h32v160h-17.472656c-3.3125-9.289062-12.113282-16-22.527344-16h-16zm-40 144c0-4.40625 3.59375-8 8-8h48c4.40625 0 8 3.59375 8 8s-3.59375 8-8 8h-48c-4.40625 0-8-3.59375-8-8zm24 96v-72h16v80h240v-80h16v72c0 13.230469-10.769531 24-24 24h-224c-13.230469 0-24-10.769531-24-24zm72 40v48h-16v-48zm-104 64c0-11.921875 22.382812-28.214844 72-38.742188v22.742188h-16v48h17.625l1.703125 7.433594c-51.585937-10.394532-75.328125-27.257813-75.328125-39.433594zm93.703125 48-3.664063-16h155.921876l-3.664063 16zm166.96875-8.566406 1.703125-7.433594h17.625v-48h-16v-22.742188c49.617188 10.527344 72 26.8125 72 38.742188 0 12.175781-23.742188 29.039062-75.328125 39.433594zm0 0" fill="#D6A354"/></svg>
